<?xml version="1.0" encoding="utf-8" standalone="no"?>
<!DOCTYPE svg PUBLIC "-//W3C//DTD SVG 1.1//EN"
  "http://www.w3.org/Graphics/SVG/1.1/DTD/svg11.dtd">
<svg xmlns:xlink="http://www.w3.org/1999/xlink" width="533.125812pt" height="598.057194pt" viewBox="0 0 533.125812 598.057194" xmlns="http://www.w3.org/2000/svg" version="1.1">
 <metadata>
  <rdf:RDF xmlns:dc="http://purl.org/dc/elements/1.1/" xmlns:cc="http://creativecommons.org/ns#" xmlns:rdf="http://www.w3.org/1999/02/22-rdf-syntax-ns#">
   <cc:Work>
    <dc:type rdf:resource="http://purl.org/dc/dcmitype/StillImage"/>
    <dc:format>image/svg+xml</dc:format>
    <dc:creator>
     <cc:Agent>
      <dc:title>Matplotlib v3.10.3, https://matplotlib.org/</dc:title>
     </cc:Agent>
    </dc:creator>
   </cc:Work>
  </rdf:RDF>
 </metadata>
 <defs>
  <style type="text/css">*{stroke-linejoin: round; stroke-linecap: butt}</style>
 </defs>
 <g id="figure_1">
  <g id="patch_1">
   <path d="M 0 598.057194
L 533.125812 598.057194
L 533.125812 -0
L 0 -0
z
" style="fill: #ffffff"/>
  </g>
  <g id="axes_1">
   <g id="patch_2">
    <path d="M 63.397813 151.05955
L 523.045812 151.05955
L 523.045812 36.721522
L 63.397813 36.721522
z
" style="fill: #ffffff"/>
   </g>
   <g id="matplotlib.axis_1">
    <g id="xtick_1">
     <g id="line2d_1"/>
     <g id="text_1">
      <text style="font-size: 12px; font-family: 'DejaVu Sans'; text-anchor: middle; fill: #5d6b75" x="80.421813" y="167.177675" transform="rotate(-0 80.421813 167.177675)">0</text>
     </g>
    </g>
    <g id="xtick_2">
     <g id="line2d_2"/>
     <g id="text_2">
      <text style="font-size: 12px; font-family: 'DejaVu Sans'; text-anchor: middle; fill: #5d6b75" x="186.821812" y="167.177675" transform="rotate(-0 186.821812 167.177675)">5</text>
     </g>
    </g>
    <g id="xtick_3">
     <g id="line2d_3"/>
     <g id="text_3">
      <text style="font-size: 12px; font-family: 'DejaVu Sans'; text-anchor: middle; fill: #5d6b75" x="293.221812" y="167.177675" transform="rotate(-0 293.221812 167.177675)">10</text>
     </g>
    </g>
    <g id="xtick_4">
     <g id="line2d_4"/>
     <g id="text_4">
      <text style="font-size: 12px; font-family: 'DejaVu Sans'; text-anchor: middle; fill: #5d6b75" x="399.621812" y="167.177675" transform="rotate(-0 399.621812 167.177675)">15</text>
     </g>
    </g>
    <g id="xtick_5">
     <g id="line2d_5"/>
     <g id="text_5">
      <text style="font-size: 12px; font-family: 'DejaVu Sans'; text-anchor: middle; fill: #5d6b75" x="506.021812" y="167.177675" transform="rotate(-0 506.021812 167.177675)">20</text>
     </g>
    </g>
   </g>
   <g id="matplotlib.axis_2">
    <g id="ytick_1">
     <g id="line2d_6">
      <path d="M 63.397813 151.05955
L 523.045812 151.05955
" clip-path="url(#p9890b98d49)" style="fill: none; stroke: #e7edf1; stroke-width: 0.8; stroke-linecap: square"/>
     </g>
     <g id="line2d_7"/>
     <g id="text_6">
      <text style="font-size: 12px; font-family: 'DejaVu Sans'; text-anchor: end; fill: #5d6b75" x="56.397813" y="155.618612" transform="rotate(-0 56.397813 155.618612)">0%</text>
     </g>
    </g>
    <g id="ytick_2">
     <g id="line2d_8">
      <path d="M 63.397813 100.242649
L 523.045812 100.242649
" clip-path="url(#p9890b98d49)" style="fill: none; stroke: #e7edf1; stroke-width: 0.8; stroke-linecap: square"/>
     </g>
     <g id="line2d_9"/>
     <g id="text_7">
      <text style="font-size: 12px; font-family: 'DejaVu Sans'; text-anchor: end; fill: #5d6b75" x="56.397813" y="104.801711" transform="rotate(-0 56.397813 104.801711)">10%</text>
     </g>
    </g>
    <g id="ytick_3">
     <g id="line2d_10">
      <path d="M 63.397813 49.425747
L 523.045812 49.425747
" clip-path="url(#p9890b98d49)" style="fill: none; stroke: #e7edf1; stroke-width: 0.8; stroke-linecap: square"/>
     </g>
     <g id="line2d_11"/>
     <g id="text_8">
      <text style="font-size: 12px; font-family: 'DejaVu Sans'; text-anchor: end; fill: #5d6b75" x="56.397813" y="53.98481" transform="rotate(-0 56.397813 53.98481)">20%</text>
     </g>
    </g>
    <g id="text_9">
     <text style="font-size: 11px; font-family: 'DejaVu Sans'; text-anchor: middle; fill: #243745" x="18.438281" y="93.890536" transform="rotate(-90 18.438281 93.890536)">Probability</text>
    </g>
   </g>
   <g id="patch_3">
    <path d="M 63.397813 151.05955
L 523.045812 151.05955
" style="fill: none; stroke: #cad4da; stroke-width: 0.8; stroke-linejoin: miter; stroke-linecap: square"/>
   </g>
   <g id="patch_4">
    <path d="M 71.909813 151.05955
L 88.933813 151.05955
L 88.933813 151.059065
L 71.909813 151.059065
z
" clip-path="url(#p9890b98d49)" style="fill: #bbd3e2; stroke: #ffffff; stroke-width: 0.7; stroke-linejoin: miter"/>
   </g>
   <g id="patch_5">
    <path d="M 93.189813 151.05955
L 110.213812 151.05955
L 110.213812 151.049857
L 93.189813 151.049857
z
" clip-path="url(#p9890b98d49)" style="fill: #bbd3e2; stroke: #ffffff; stroke-width: 0.7; stroke-linejoin: miter"/>
   </g>
   <g id="patch_6">
    <path d="M 114.469812 151.05955
L 131.493812 151.05955
L 131.493812 150.967471
L 114.469812 150.967471
z
" clip-path="url(#p9890b98d49)" style="fill: #bbd3e2; stroke: #ffffff; stroke-width: 0.7; stroke-linejoin: miter"/>
   </g>
   <g id="patch_7">
    <path d="M 135.749812 151.05955
L 152.773812 151.05955
L 152.773812 150.507074
L 135.749812 150.507074
z
" clip-path="url(#p9890b98d49)" style="fill: #bbd3e2; stroke: #ffffff; stroke-width: 0.7; stroke-linejoin: miter"/>
   </g>
   <g id="patch_8">
    <path d="M 157.029812 151.05955
L 174.053812 151.05955
L 174.053812 148.711529
L 157.029812 148.711529
z
" clip-path="url(#p9890b98d49)" style="fill: #bbd3e2; stroke: #ffffff; stroke-width: 0.7; stroke-linejoin: miter"/>
   </g>
   <g id="patch_9">
    <path d="M 178.309812 151.05955
L 195.333812 151.05955
L 195.333812 143.545882
L 178.309812 143.545882
z
" clip-path="url(#p9890b98d49)" style="fill: #bbd3e2; stroke: #ffffff; stroke-width: 0.7; stroke-linejoin: miter"/>
   </g>
   <g id="patch_10">
    <path d="M 199.589812 151.05955
L 216.613812 151.05955
L 216.613812 132.275379
L 199.589812 132.275379
z
" clip-path="url(#p9890b98d49)" style="fill: #bbd3e2; stroke: #ffffff; stroke-width: 0.7; stroke-linejoin: miter"/>
   </g>
   <g id="patch_11">
    <path d="M 220.869812 151.05955
L 237.893812 151.05955
L 237.893812 113.491208
L 220.869812 113.491208
z
" clip-path="url(#p9890b98d49)" style="fill: #bbd3e2; stroke: #ffffff; stroke-width: 0.7; stroke-linejoin: miter"/>
   </g>
   <g id="patch_12">
    <path d="M 242.149812 151.05955
L 259.173812 151.05955
L 259.173812 90.010994
L 242.149812 90.010994
z
" clip-path="url(#p9890b98d49)" style="fill: #bbd3e2; stroke: #ffffff; stroke-width: 0.7; stroke-linejoin: miter"/>
   </g>
   <g id="patch_13">
    <path d="M 263.429812 151.05955
L 280.453812 151.05955
L 280.453812 69.661475
L 263.429812 69.661475
z
" clip-path="url(#p9890b98d49)" style="fill: #bbd3e2; stroke: #ffffff; stroke-width: 0.7; stroke-linejoin: miter"/>
   </g>
   <g id="patch_14">
    <path d="M 284.709812 151.05955
L 301.733812 151.05955
L 301.733812 61.521668
L 284.709812 61.521668
z
" clip-path="url(#p9890b98d49)" style="fill: #bbd3e2; stroke: #ffffff; stroke-width: 0.7; stroke-linejoin: miter"/>
   </g>
   <g id="patch_15">
    <path d="M 305.989812 151.05955
L 323.013812 151.05955
L 323.013812 69.661475
L 305.989812 69.661475
z
" clip-path="url(#p9890b98d49)" style="fill: #bbd3e2; stroke: #ffffff; stroke-width: 0.7; stroke-linejoin: miter"/>
   </g>
   <g id="patch_16">
    <path d="M 327.269812 151.05955
L 344.293812 151.05955
L 344.293812 90.010994
L 327.269812 90.010994
z
" clip-path="url(#p9890b98d49)" style="fill: #bbd3e2; stroke: #ffffff; stroke-width: 0.7; stroke-linejoin: miter"/>
   </g>
   <g id="patch_17">
    <path d="M 348.549812 151.05955
L 365.573812 151.05955
L 365.573812 113.491208
L 348.549812 113.491208
z
" clip-path="url(#p9890b98d49)" style="fill: #bbd3e2; stroke: #ffffff; stroke-width: 0.7; stroke-linejoin: miter"/>
   </g>
   <g id="patch_18">
    <path d="M 369.829812 151.05955
L 386.853812 151.05955
L 386.853812 132.275379
L 369.829812 132.275379
z
" clip-path="url(#p9890b98d49)" style="fill: #bbd3e2; stroke: #ffffff; stroke-width: 0.7; stroke-linejoin: miter"/>
   </g>
   <g id="patch_19">
    <path d="M 391.109812 151.05955
L 408.133812 151.05955
L 408.133812 143.545882
L 391.109812 143.545882
z
" clip-path="url(#p9890b98d49)" style="fill: #c5652b; stroke: #ffffff; stroke-width: 0.7; stroke-linejoin: miter"/>
   </g>
   <g id="patch_20">
    <path d="M 412.389812 151.05955
L 429.413812 151.05955
L 429.413812 148.711529
L 412.389812 148.711529
z
" clip-path="url(#p9890b98d49)" style="fill: #c5652b; stroke: #ffffff; stroke-width: 0.7; stroke-linejoin: miter"/>
   </g>
   <g id="patch_21">
    <path d="M 433.669812 151.05955
L 450.693812 151.05955
L 450.693812 150.507074
L 433.669812 150.507074
z
" clip-path="url(#p9890b98d49)" style="fill: #c5652b; stroke: #ffffff; stroke-width: 0.7; stroke-linejoin: miter"/>
   </g>
   <g id="patch_22">
    <path d="M 454.949812 151.05955
L 471.973812 151.05955
L 471.973812 150.967471
L 454.949812 150.967471
z
" clip-path="url(#p9890b98d49)" style="fill: #c5652b; stroke: #ffffff; stroke-width: 0.7; stroke-linejoin: miter"/>
   </g>
   <g id="patch_23">
    <path d="M 476.229812 151.05955
L 493.253812 151.05955
L 493.253812 151.049857
L 476.229812 151.049857
z
" clip-path="url(#p9890b98d49)" style="fill: #c5652b; stroke: #ffffff; stroke-width: 0.7; stroke-linejoin: miter"/>
   </g>
   <g id="patch_24">
    <path d="M 497.509812 151.05955
L 514.533812 151.05955
L 514.533812 151.059065
L 497.509812 151.059065
z
" clip-path="url(#p9890b98d49)" style="fill: #c5652b; stroke: #ffffff; stroke-width: 0.7; stroke-linejoin: miter"/>
   </g>
   <g id="text_10">
    <text style="font-weight: 600; font-size: 15.5px; font-family: 'DejaVu Sans'; text-anchor: start; fill: #243745" x="63.397813" y="21.857578" transform="rotate(-0 63.397813 21.857578)">Known p = 0.50</text>
   </g>
   <g id="text_11">
    <text style="font-size: 15.5px; font-family: 'DejaVu Sans'; text-anchor: end; fill: #c5652b" x="523.045812" y="21.857578" transform="rotate(-0 523.045812 21.857578)">P(K ≥ 15) = 2.07%</text>
   </g>
   <g id="line2d_12">
    <path d="M 388.981812 151.05955
L 388.981812 36.721522
" clip-path="url(#p9890b98d49)" style="fill: none; stroke-dasharray: 3.6,3.6; stroke-dashoffset: 0; stroke: #c5652b; stroke-width: 1.2"/>
   </g>
  </g>
  <g id="axes_2">
   <g id="patch_25">
    <path d="M 63.397813 337.430536
L 523.045812 337.430536
L 523.045812 223.092508
L 63.397813 223.092508
z
" style="fill: #ffffff"/>
   </g>
   <g id="matplotlib.axis_3">
    <g id="xtick_6">
     <g id="line2d_13"/>
     <g id="text_12">
      <text style="font-size: 12px; font-family: 'DejaVu Sans'; text-anchor: middle; fill: #5d6b75" x="80.421813" y="353.548661" transform="rotate(-0 80.421813 353.548661)">0</text>
     </g>
    </g>
    <g id="xtick_7">
     <g id="line2d_14"/>
     <g id="text_13">
      <text style="font-size: 12px; font-family: 'DejaVu Sans'; text-anchor: middle; fill: #5d6b75" x="186.821812" y="353.548661" transform="rotate(-0 186.821812 353.548661)">5</text>
     </g>
    </g>
    <g id="xtick_8">
     <g id="line2d_15"/>
     <g id="text_14">
      <text style="font-size: 12px; font-family: 'DejaVu Sans'; text-anchor: middle; fill: #5d6b75" x="293.221812" y="353.548661" transform="rotate(-0 293.221812 353.548661)">10</text>
     </g>
    </g>
    <g id="xtick_9">
     <g id="line2d_16"/>
     <g id="text_15">
      <text style="font-size: 12px; font-family: 'DejaVu Sans'; text-anchor: middle; fill: #5d6b75" x="399.621812" y="353.548661" transform="rotate(-0 399.621812 353.548661)">15</text>
     </g>
    </g>
    <g id="xtick_10">
     <g id="line2d_17"/>
     <g id="text_16">
      <text style="font-size: 12px; font-family: 'DejaVu Sans'; text-anchor: middle; fill: #5d6b75" x="506.021812" y="353.548661" transform="rotate(-0 506.021812 353.548661)">20</text>
     </g>
    </g>
   </g>
   <g id="matplotlib.axis_4">
    <g id="ytick_4">
     <g id="line2d_18">
      <path d="M 63.397813 337.430536
L 523.045812 337.430536
" clip-path="url(#p1055776491)" style="fill: none; stroke: #e7edf1; stroke-width: 0.8; stroke-linecap: square"/>
     </g>
     <g id="line2d_19"/>
     <g id="text_17">
      <text style="font-size: 12px; font-family: 'DejaVu Sans'; text-anchor: end; fill: #5d6b75" x="56.397813" y="341.989598" transform="rotate(-0 56.397813 341.989598)">0%</text>
     </g>
    </g>
    <g id="ytick_5">
     <g id="line2d_20">
      <path d="M 63.397813 286.613634
L 523.045812 286.613634
" clip-path="url(#p1055776491)" style="fill: none; stroke: #e7edf1; stroke-width: 0.8; stroke-linecap: square"/>
     </g>
     <g id="line2d_21"/>
     <g id="text_18">
      <text style="font-size: 12px; font-family: 'DejaVu Sans'; text-anchor: end; fill: #5d6b75" x="56.397813" y="291.172697" transform="rotate(-0 56.397813 291.172697)">10%</text>
     </g>
    </g>
    <g id="ytick_6">
     <g id="line2d_22">
      <path d="M 63.397813 235.796733
L 523.045812 235.796733
" clip-path="url(#p1055776491)" style="fill: none; stroke: #e7edf1; stroke-width: 0.8; stroke-linecap: square"/>
     </g>
     <g id="line2d_23"/>
     <g id="text_19">
      <text style="font-size: 12px; font-family: 'DejaVu Sans'; text-anchor: end; fill: #5d6b75" x="56.397813" y="240.355796" transform="rotate(-0 56.397813 240.355796)">20%</text>
     </g>
    </g>
    <g id="text_20">
     <text style="font-size: 11px; font-family: 'DejaVu Sans'; text-anchor: middle; fill: #243745" x="18.438281" y="280.261522" transform="rotate(-90 18.438281 280.261522)">Probability</text>
    </g>
   </g>
   <g id="patch_26">
    <path d="M 63.397813 337.430536
L 523.045812 337.430536
" style="fill: none; stroke: #cad4da; stroke-width: 0.8; stroke-linejoin: miter; stroke-linecap: square"/>
   </g>
   <g id="patch_27">
    <path d="M 71.909813 337.430536
L 88.933813 337.430536
L 88.933813 337.43053
L 71.909813 337.43053
z
" clip-path="url(#p1055776491)" style="fill: #bbd3e2; stroke: #ffffff; stroke-width: 0.7; stroke-linejoin: miter"/>
   </g>
   <g id="patch_28">
    <path d="M 93.189813 337.430536
L 110.213812 337.430536
L 110.213812 337.430368
L 93.189813 337.430368
z
" clip-path="url(#p1055776491)" style="fill: #bbd3e2; stroke: #ffffff; stroke-width: 0.7; stroke-linejoin: miter"/>
   </g>
   <g id="patch_29">
    <path d="M 114.469812 337.430536
L 131.493812 337.430536
L 131.493812 337.428147
L 114.469812 337.428147
z
" clip-path="url(#p1055776491)" style="fill: #bbd3e2; stroke: #ffffff; stroke-width: 0.7; stroke-linejoin: miter"/>
   </g>
   <g id="patch_30">
    <path d="M 135.749812 337.430536
L 152.773812 337.430536
L 152.773812 337.409038
L 135.749812 337.409038
z
" clip-path="url(#p1055776491)" style="fill: #bbd3e2; stroke: #ffffff; stroke-width: 0.7; stroke-linejoin: miter"/>
   </g>
   <g id="patch_31">
    <path d="M 157.029812 337.430536
L 174.053812 337.430536
L 174.053812 337.29349
L 157.029812 337.29349
z
" clip-path="url(#p1055776491)" style="fill: #bbd3e2; stroke: #ffffff; stroke-width: 0.7; stroke-linejoin: miter"/>
   </g>
   <g id="patch_32">
    <path d="M 178.309812 337.430536
L 195.333812 337.430536
L 195.333812 336.772714
L 178.309812 336.772714
z
" clip-path="url(#p1055776491)" style="fill: #bbd3e2; stroke: #ffffff; stroke-width: 0.7; stroke-linejoin: miter"/>
   </g>
   <g id="patch_33">
    <path d="M 199.589812 337.430536
L 216.613812 337.430536
L 216.613812 334.963705
L 199.589812 334.963705
z
" clip-path="url(#p1055776491)" style="fill: #bbd3e2; stroke: #ffffff; stroke-width: 0.7; stroke-linejoin: miter"/>
   </g>
   <g id="patch_34">
    <path d="M 220.869812 337.430536
L 237.893812 337.430536
L 237.893812 330.030044
L 220.869812 330.030044
z
" clip-path="url(#p1055776491)" style="fill: #bbd3e2; stroke: #ffffff; stroke-width: 0.7; stroke-linejoin: miter"/>
   </g>
   <g id="patch_35">
    <path d="M 242.149812 337.430536
L 259.173812 337.430536
L 259.173812 319.391837
L 242.149812 319.391837
z
" clip-path="url(#p1055776491)" style="fill: #bbd3e2; stroke: #ffffff; stroke-width: 0.7; stroke-linejoin: miter"/>
   </g>
   <g id="patch_36">
    <path d="M 263.429812 337.430536
L 280.453812 337.430536
L 280.453812 301.353138
L 263.429812 301.353138
z
" clip-path="url(#p1055776491)" style="fill: #bbd3e2; stroke: #ffffff; stroke-width: 0.7; stroke-linejoin: miter"/>
   </g>
   <g id="patch_37">
    <path d="M 284.709812 337.430536
L 301.733812 337.430536
L 301.733812 277.90283
L 284.709812 277.90283
z
" clip-path="url(#p1055776491)" style="fill: #bbd3e2; stroke: #ffffff; stroke-width: 0.7; stroke-linejoin: miter"/>
   </g>
   <g id="patch_38">
    <path d="M 305.989812 337.430536
L 323.013812 337.430536
L 323.013812 256.256391
L 305.989812 256.256391
z
" clip-path="url(#p1055776491)" style="fill: #bbd3e2; stroke: #ffffff; stroke-width: 0.7; stroke-linejoin: miter"/>
   </g>
   <g id="patch_39">
    <path d="M 327.269812 337.430536
L 344.293812 337.430536
L 344.293812 246.109623
L 327.269812 246.109623
z
" clip-path="url(#p1055776491)" style="fill: #bbd3e2; stroke: #ffffff; stroke-width: 0.7; stroke-linejoin: miter"/>
   </g>
   <g id="patch_40">
    <path d="M 348.549812 337.430536
L 365.573812 337.430536
L 365.573812 253.134308
L 348.549812 253.134308
z
" clip-path="url(#p1055776491)" style="fill: #bbd3e2; stroke: #ffffff; stroke-width: 0.7; stroke-linejoin: miter"/>
   </g>
   <g id="patch_41">
    <path d="M 369.829812 337.430536
L 386.853812 337.430536
L 386.853812 274.208365
L 369.829812 274.208365
z
" clip-path="url(#p1055776491)" style="fill: #bbd3e2; stroke: #ffffff; stroke-width: 0.7; stroke-linejoin: miter"/>
   </g>
   <g id="patch_42">
    <path d="M 391.109812 337.430536
L 408.133812 337.430536
L 408.133812 299.497234
L 391.109812 299.497234
z
" clip-path="url(#p1055776491)" style="fill: #c5652b; stroke: #ffffff; stroke-width: 0.7; stroke-linejoin: miter"/>
   </g>
   <g id="patch_43">
    <path d="M 412.389812 337.430536
L 429.413812 337.430536
L 429.413812 319.6493
L 412.389812 319.6493
z
" clip-path="url(#p1055776491)" style="fill: #c5652b; stroke: #ffffff; stroke-width: 0.7; stroke-linejoin: miter"/>
   </g>
   <g id="patch_44">
    <path d="M 433.669812 337.430536
L 450.693812 337.430536
L 450.693812 331.154806
L 433.669812 331.154806
z
" clip-path="url(#p1055776491)" style="fill: #c5652b; stroke: #ffffff; stroke-width: 0.7; stroke-linejoin: miter"/>
   </g>
   <g id="patch_45">
    <path d="M 454.949812 337.430536
L 471.973812 337.430536
L 471.973812 335.861603
L 454.949812 335.861603
z
" clip-path="url(#p1055776491)" style="fill: #c5652b; stroke: #ffffff; stroke-width: 0.7; stroke-linejoin: miter"/>
   </g>
   <g id="patch_46">
    <path d="M 476.229812 337.430536
L 493.253812 337.430536
L 493.253812 337.18281
L 476.229812 337.18281
z
" clip-path="url(#p1055776491)" style="fill: #c5652b; stroke: #ffffff; stroke-width: 0.7; stroke-linejoin: miter"/>
   </g>
   <g id="patch_47">
    <path d="M 497.509812 337.430536
L 514.533812 337.430536
L 514.533812 337.411956
L 497.509812 337.411956
z
" clip-path="url(#p1055776491)" style="fill: #c5652b; stroke: #ffffff; stroke-width: 0.7; stroke-linejoin: miter"/>
   </g>
   <g id="text_21">
    <text style="font-weight: 600; font-size: 15.5px; font-family: 'DejaVu Sans'; text-anchor: start; fill: #243745" x="63.397813" y="208.228564" transform="rotate(-0 63.397813 208.228564)">Known p = 0.60</text>
   </g>
   <g id="text_22">
    <text style="font-size: 15.5px; font-family: 'DejaVu Sans'; text-anchor: end; fill: #c5652b" x="523.045812" y="208.228564" transform="rotate(-0 523.045812 208.228564)">P(K ≥ 15) = 12.56%</text>
   </g>
   <g id="line2d_24">
    <path d="M 388.981812 337.430536
L 388.981812 223.092508
" clip-path="url(#p1055776491)" style="fill: none; stroke-dasharray: 3.6,3.6; stroke-dashoffset: 0; stroke: #c5652b; stroke-width: 1.2"/>
   </g>
  </g>
  <g id="axes_3">
   <g id="patch_48">
    <path d="M 63.397813 523.801522
L 523.045812 523.801522
L 523.045812 409.463494
L 63.397813 409.463494
z
" style="fill: #ffffff"/>
   </g>
   <g id="matplotlib.axis_5">
    <g id="xtick_11">
     <g id="line2d_25"/>
     <g id="text_23">
      <text style="font-size: 12px; font-family: 'DejaVu Sans'; text-anchor: middle; fill: #5d6b75" x="80.421813" y="539.919647" transform="rotate(-0 80.421813 539.919647)">0</text>
     </g>
    </g>
    <g id="xtick_12">
     <g id="line2d_26"/>
     <g id="text_24">
      <text style="font-size: 12px; font-family: 'DejaVu Sans'; text-anchor: middle; fill: #5d6b75" x="186.821812" y="539.919647" transform="rotate(-0 186.821812 539.919647)">5</text>
     </g>
    </g>
    <g id="xtick_13">
     <g id="line2d_27"/>
     <g id="text_25">
      <text style="font-size: 12px; font-family: 'DejaVu Sans'; text-anchor: middle; fill: #5d6b75" x="293.221812" y="539.919647" transform="rotate(-0 293.221812 539.919647)">10</text>
     </g>
    </g>
    <g id="xtick_14">
     <g id="line2d_28"/>
     <g id="text_26">
      <text style="font-size: 12px; font-family: 'DejaVu Sans'; text-anchor: middle; fill: #5d6b75" x="399.621812" y="539.919647" transform="rotate(-0 399.621812 539.919647)">15</text>
     </g>
    </g>
    <g id="xtick_15">
     <g id="line2d_29"/>
     <g id="text_27">
      <text style="font-size: 12px; font-family: 'DejaVu Sans'; text-anchor: middle; fill: #5d6b75" x="506.021812" y="539.919647" transform="rotate(-0 506.021812 539.919647)">20</text>
     </g>
    </g>
    <g id="text_28">
     <text style="font-size: 12px; font-family: 'DejaVu Sans'; text-anchor: middle; fill: #243745" x="293.221812" y="560.533397" transform="rotate(-0 293.221812 560.533397)">Successes in 20 independent attempts</text>
    </g>
   </g>
   <g id="matplotlib.axis_6">
    <g id="ytick_7">
     <g id="line2d_30">
      <path d="M 63.397813 523.801522
L 523.045812 523.801522
" clip-path="url(#pb20b8610f0)" style="fill: none; stroke: #e7edf1; stroke-width: 0.8; stroke-linecap: square"/>
     </g>
     <g id="line2d_31"/>
     <g id="text_29">
      <text style="font-size: 12px; font-family: 'DejaVu Sans'; text-anchor: end; fill: #5d6b75" x="56.397813" y="528.360584" transform="rotate(-0 56.397813 528.360584)">0%</text>
     </g>
    </g>
    <g id="ytick_8">
     <g id="line2d_32">
      <path d="M 63.397813 472.98462
L 523.045812 472.98462
" clip-path="url(#pb20b8610f0)" style="fill: none; stroke: #e7edf1; stroke-width: 0.8; stroke-linecap: square"/>
     </g>
     <g id="line2d_33"/>
     <g id="text_30">
      <text style="font-size: 12px; font-family: 'DejaVu Sans'; text-anchor: end; fill: #5d6b75" x="56.397813" y="477.543683" transform="rotate(-0 56.397813 477.543683)">10%</text>
     </g>
    </g>
    <g id="ytick_9">
     <g id="line2d_34">
      <path d="M 63.397813 422.167719
L 523.045812 422.167719
" clip-path="url(#pb20b8610f0)" style="fill: none; stroke: #e7edf1; stroke-width: 0.8; stroke-linecap: square"/>
     </g>
     <g id="line2d_35"/>
     <g id="text_31">
      <text style="font-size: 12px; font-family: 'DejaVu Sans'; text-anchor: end; fill: #5d6b75" x="56.397813" y="426.726781" transform="rotate(-0 56.397813 426.726781)">20%</text>
     </g>
    </g>
    <g id="text_32">
     <text style="font-size: 11px; font-family: 'DejaVu Sans'; text-anchor: middle; fill: #243745" x="18.438281" y="466.632508" transform="rotate(-90 18.438281 466.632508)">Probability</text>
    </g>
   </g>
   <g id="patch_49">
    <path d="M 63.397813 523.801522
L 523.045812 523.801522
" style="fill: none; stroke: #cad4da; stroke-width: 0.8; stroke-linejoin: miter; stroke-linecap: square"/>
   </g>
   <g id="patch_50">
    <path d="M 71.909813 523.801522
L 88.933813 523.801522
L 88.933813 523.801522
L 71.909813 523.801522
z
" clip-path="url(#pb20b8610f0)" style="fill: #bbd3e2; stroke: #ffffff; stroke-width: 0.7; stroke-linejoin: miter"/>
   </g>
   <g id="patch_51">
    <path d="M 93.189813 523.801522
L 110.213812 523.801522
L 110.213812 523.801521
L 93.189813 523.801521
z
" clip-path="url(#pb20b8610f0)" style="fill: #bbd3e2; stroke: #ffffff; stroke-width: 0.7; stroke-linejoin: miter"/>
   </g>
   <g id="patch_52">
    <path d="M 114.469812 523.801522
L 131.493812 523.801522
L 131.493812 523.801503
L 114.469812 523.801503
z
" clip-path="url(#pb20b8610f0)" style="fill: #bbd3e2; stroke: #ffffff; stroke-width: 0.7; stroke-linejoin: miter"/>
   </g>
   <g id="patch_53">
    <path d="M 135.749812 523.801522
L 152.773812 523.801522
L 152.773812 523.801265
L 135.749812 523.801265
z
" clip-path="url(#pb20b8610f0)" style="fill: #bbd3e2; stroke: #ffffff; stroke-width: 0.7; stroke-linejoin: miter"/>
   </g>
   <g id="patch_54">
    <path d="M 157.029812 523.801522
L 174.053812 523.801522
L 174.053812 523.798977
L 157.029812 523.798977
z
" clip-path="url(#pb20b8610f0)" style="fill: #bbd3e2; stroke: #ffffff; stroke-width: 0.7; stroke-linejoin: miter"/>
   </g>
   <g id="patch_55">
    <path d="M 178.309812 523.801522
L 195.333812 523.801522
L 195.333812 523.782521
L 178.309812 523.782521
z
" clip-path="url(#pb20b8610f0)" style="fill: #bbd3e2; stroke: #ffffff; stroke-width: 0.7; stroke-linejoin: miter"/>
   </g>
   <g id="patch_56">
    <path d="M 199.589812 523.801522
L 216.613812 523.801522
L 216.613812 523.690687
L 199.589812 523.690687
z
" clip-path="url(#pb20b8610f0)" style="fill: #bbd3e2; stroke: #ffffff; stroke-width: 0.7; stroke-linejoin: miter"/>
   </g>
   <g id="patch_57">
    <path d="M 220.869812 523.801522
L 237.893812 523.801522
L 237.893812 523.284291
L 220.869812 523.284291
z
" clip-path="url(#pb20b8610f0)" style="fill: #bbd3e2; stroke: #ffffff; stroke-width: 0.7; stroke-linejoin: miter"/>
   </g>
   <g id="patch_58">
    <path d="M 242.149812 523.801522
L 259.173812 523.801522
L 259.173812 521.840354
L 242.149812 521.840354
z
" clip-path="url(#pb20b8610f0)" style="fill: #bbd3e2; stroke: #ffffff; stroke-width: 0.7; stroke-linejoin: miter"/>
   </g>
   <g id="patch_59">
    <path d="M 263.429812 523.801522
L 280.453812 523.801522
L 280.453812 517.700112
L 263.429812 517.700112
z
" clip-path="url(#pb20b8610f0)" style="fill: #bbd3e2; stroke: #ffffff; stroke-width: 0.7; stroke-linejoin: miter"/>
   </g>
   <g id="patch_60">
    <path d="M 284.709812 523.801522
L 301.733812 523.801522
L 301.733812 508.141236
L 284.709812 508.141236
z
" clip-path="url(#pb20b8610f0)" style="fill: #bbd3e2; stroke: #ffffff; stroke-width: 0.7; stroke-linejoin: miter"/>
   </g>
   <g id="patch_61">
    <path d="M 305.989812 523.801522
L 323.013812 523.801522
L 323.013812 490.582734
L 305.989812 490.582734
z
" clip-path="url(#pb20b8610f0)" style="fill: #bbd3e2; stroke: #ffffff; stroke-width: 0.7; stroke-linejoin: miter"/>
   </g>
   <g id="patch_62">
    <path d="M 327.269812 523.801522
L 344.293812 523.801522
L 344.293812 465.668643
L 327.269812 465.668643
z
" clip-path="url(#pb20b8610f0)" style="fill: #bbd3e2; stroke: #ffffff; stroke-width: 0.7; stroke-linejoin: miter"/>
   </g>
   <g id="patch_63">
    <path d="M 348.549812 523.801522
L 365.573812 523.801522
L 365.573812 440.328671
L 348.549812 440.328671
z
" clip-path="url(#pb20b8610f0)" style="fill: #bbd3e2; stroke: #ffffff; stroke-width: 0.7; stroke-linejoin: miter"/>
   </g>
   <g id="patch_64">
    <path d="M 369.829812 523.801522
L 386.853812 523.801522
L 386.853812 426.416529
L 369.829812 426.416529
z
" clip-path="url(#pb20b8610f0)" style="fill: #bbd3e2; stroke: #ffffff; stroke-width: 0.7; stroke-linejoin: miter"/>
   </g>
   <g id="patch_65">
    <path d="M 391.109812 523.801522
L 408.133812 523.801522
L 408.133812 432.908862
L 391.109812 432.908862
z
" clip-path="url(#pb20b8610f0)" style="fill: #c5652b; stroke: #ffffff; stroke-width: 0.7; stroke-linejoin: miter"/>
   </g>
   <g id="patch_66">
    <path d="M 412.389812 523.801522
L 429.413812 523.801522
L 429.413812 457.525624
L 412.389812 457.525624
z
" clip-path="url(#pb20b8610f0)" style="fill: #c5652b; stroke: #ffffff; stroke-width: 0.7; stroke-linejoin: miter"/>
   </g>
   <g id="patch_67">
    <path d="M 433.669812 523.801522
L 450.693812 523.801522
L 450.693812 487.414754
L 433.669812 487.414754
z
" clip-path="url(#pb20b8610f0)" style="fill: #c5652b; stroke: #ffffff; stroke-width: 0.7; stroke-linejoin: miter"/>
   </g>
   <g id="patch_68">
    <path d="M 454.949812 523.801522
L 471.973812 523.801522
L 471.973812 509.651112
L 454.949812 509.651112
z
" clip-path="url(#pb20b8610f0)" style="fill: #c5652b; stroke: #ffffff; stroke-width: 0.7; stroke-linejoin: miter"/>
   </g>
   <g id="patch_69">
    <path d="M 476.229812 523.801522
L 493.253812 523.801522
L 493.253812 520.325983
L 476.229812 520.325983
z
" clip-path="url(#pb20b8610f0)" style="fill: #c5652b; stroke: #ffffff; stroke-width: 0.7; stroke-linejoin: miter"/>
   </g>
   <g id="patch_70">
    <path d="M 497.509812 523.801522
L 514.533812 523.801522
L 514.533812 523.396042
L 497.509812 523.396042
z
" clip-path="url(#pb20b8610f0)" style="fill: #c5652b; stroke: #ffffff; stroke-width: 0.7; stroke-linejoin: miter"/>
   </g>
   <g id="text_33">
    <text style="font-weight: 600; font-size: 15.5px; font-family: 'DejaVu Sans'; text-anchor: start; fill: #243745" x="63.397813" y="394.59955" transform="rotate(-0 63.397813 394.59955)">Known p = 0.70</text>
   </g>
   <g id="text_34">
    <text style="font-size: 15.5px; font-family: 'DejaVu Sans'; text-anchor: end; fill: #c5652b" x="523.045812" y="394.59955" transform="rotate(-0 523.045812 394.59955)">P(K ≥ 15) = 41.64%</text>
   </g>
   <g id="line2d_36">
    <path d="M 388.981812 523.801522
L 388.981812 409.463494
" clip-path="url(#pb20b8610f0)" style="fill: none; stroke-dasharray: 3.6,3.6; stroke-dashoffset: 0; stroke: #c5652b; stroke-width: 1.2"/>
   </g>
  </g>
  <g id="text_35">
   <text style="font-size: 10.5px; font-family: 'DejaVu Sans'; text-anchor: start; fill: #5d6b75" x="63.397813" y="585.793522" transform="rotate(-0 63.397813 585.793522)">Orange bars: the same observed threshold, 15 or more successes.</text>
  </g>
 </g>
 <defs>
  <clipPath id="p9890b98d49">
   <rect x="63.397813" y="36.721522" width="459.648" height="114.338028"/>
  </clipPath>
  <clipPath id="p1055776491">
   <rect x="63.397813" y="223.092508" width="459.648" height="114.338028"/>
  </clipPath>
  <clipPath id="pb20b8610f0">
   <rect x="63.397813" y="409.463494" width="459.648" height="114.338028"/>
  </clipPath>
 </defs>
</svg>
