<?xml version="1.0" encoding="utf-8" standalone="no"?>
<!DOCTYPE svg PUBLIC "-//W3C//DTD SVG 1.1//EN"
  "http://www.w3.org/Graphics/SVG/1.1/DTD/svg11.dtd">
<svg xmlns:xlink="http://www.w3.org/1999/xlink" width="872.39952pt" height="426.590748pt" viewBox="0 0 872.39952 426.590748" xmlns="http://www.w3.org/2000/svg" version="1.1">
 <metadata>
  <rdf:RDF xmlns:dc="http://purl.org/dc/elements/1.1/" xmlns:cc="http://creativecommons.org/ns#" xmlns:rdf="http://www.w3.org/1999/02/22-rdf-syntax-ns#">
   <cc:Work>
    <dc:type rdf:resource="http://purl.org/dc/dcmitype/StillImage"/>
    <dc:date>2026-09-11T07:28:30.196571</dc:date>
    <dc:format>image/svg+xml</dc:format>
    <dc:creator>
     <cc:Agent>
      <dc:title>Matplotlib v3.11.1, https://matplotlib.org/</dc:title>
     </cc:Agent>
    </dc:creator>
   </cc:Work>
  </rdf:RDF>
 </metadata>
 <defs>
  <style type="text/css">*{stroke-linejoin: round; stroke-linecap: butt}</style>
 </defs>
 <g id="figure_1">
  <g id="patch_1">
   <path d="M 0 426.590748 
L 872.39952 426.590748 
L 872.39952 0 
L 0 0 
z
" style="fill: #faf9f6"/>
  </g>
  <g id="axes_1">
   <g id="patch_2">
    <path d="M 46.694297 356.998661 
L 431.87976 356.998661 
L 431.87976 36.318125 
L 46.694297 36.318125 
z
" style="fill: #faf9f6"/>
   </g>
   <g id="PathCollection_1">
    <defs>
     <path id="mb14f0b5e4e" d="M 0 2.95804 
C 0.784481 2.95804 1.536938 2.646362 2.09165 2.09165 
C 2.646362 1.536938 2.95804 0.784481 2.95804 0 
C 2.95804 -0.784481 2.646362 -1.536938 2.09165 -2.09165 
C 1.536938 -2.646362 0.784481 -2.95804 0 -2.95804 
C -0.784481 -2.95804 -1.536938 -2.646362 -2.09165 -2.09165 
C -2.646362 -1.536938 -2.95804 -0.784481 -2.95804 0 
C -2.95804 0.784481 -2.646362 1.536938 -2.09165 2.09165 
C -1.536938 2.646362 -0.784481 2.95804 0 2.95804 
z
" style="stroke: #293c50; stroke-opacity: 0.35"/>
    </defs>
    <g clip-path="url(#pdc25ded86a)">
     <use xlink:href="#mb14f0b5e4e" x="414.37133" y="113.98607" style="fill: #293c50; fill-opacity: 0.35; stroke: #293c50; stroke-opacity: 0.35"/>
     <use xlink:href="#mb14f0b5e4e" x="310.044811" y="130.000079" style="fill: #293c50; fill-opacity: 0.35; stroke: #293c50; stroke-opacity: 0.35"/>
     <use xlink:href="#mb14f0b5e4e" x="369.171388" y="113.98607" style="fill: #293c50; fill-opacity: 0.35; stroke: #293c50; stroke-opacity: 0.35"/>
     <use xlink:href="#mb14f0b5e4e" x="312.941058" y="81.958051" style="fill: #293c50; fill-opacity: 0.35; stroke: #293c50; stroke-opacity: 0.35"/>
    </g>
   </g>
   <g id="PathCollection_2">
    <defs>
     <path id="mae0cee2ca1" d="M 0 5.91608 
C 1.568963 5.91608 3.073876 5.292724 4.1833 4.1833 
C 5.292724 3.073876 5.91608 1.568963 5.91608 0 
C 5.91608 -1.568963 5.292724 -3.073876 4.1833 -4.1833 
C 3.073876 -5.292724 1.568963 -5.91608 0 -5.91608 
C -1.568963 -5.91608 -3.073876 -5.292724 -4.1833 -4.1833 
C -5.292724 -3.073876 -5.91608 -1.568963 -5.91608 0 
C -5.91608 1.568963 -5.292724 3.073876 -4.1833 4.1833 
C -3.073876 5.292724 -1.568963 5.91608 0 5.91608 
z
" style="stroke: #293c50"/>
    </defs>
    <g clip-path="url(#pdc25ded86a)">
     <use xlink:href="#mae0cee2ca1" x="351.632147" y="109.982568" style="fill: #293c50; stroke: #293c50"/>
    </g>
   </g>
   <g id="PathCollection_3">
    <defs>
     <path id="m6b6661c0e2" d="M 0 2.95804 
C 0.784481 2.95804 1.536938 2.646362 2.09165 2.09165 
C 2.646362 1.536938 2.95804 0.784481 2.95804 0 
C 2.95804 -0.784481 2.646362 -1.536938 2.09165 -2.09165 
C 1.536938 -2.646362 0.784481 -2.95804 0 -2.95804 
C -0.784481 -2.95804 -1.536938 -2.646362 -2.09165 -2.09165 
C -2.646362 -1.536938 -2.95804 -0.784481 -2.95804 0 
C -2.95804 0.784481 -2.646362 1.536938 -2.09165 2.09165 
C -1.536938 2.646362 -0.784481 2.95804 0 2.95804 
z
" style="stroke: #bc623d; stroke-opacity: 0.35"/>
    </defs>
    <g clip-path="url(#pdc25ded86a)">
     <use xlink:href="#m6b6661c0e2" x="114.332451" y="121.993075" style="fill: #bc623d; fill-opacity: 0.35; stroke: #bc623d; stroke-opacity: 0.35"/>
     <use xlink:href="#m6b6661c0e2" x="115.934631" y="97.972061" style="fill: #bc623d; fill-opacity: 0.35; stroke: #bc623d; stroke-opacity: 0.35"/>
     <use xlink:href="#m6b6661c0e2" x="112.483783" y="130.000079" style="fill: #bc623d; fill-opacity: 0.35; stroke: #bc623d; stroke-opacity: 0.35"/>
     <use xlink:href="#m6b6661c0e2" x="113.469739" y="105.979065" style="fill: #bc623d; fill-opacity: 0.35; stroke: #bc623d; stroke-opacity: 0.35"/>
    </g>
   </g>
   <g id="PathCollection_4">
    <defs>
     <path id="m467838e96a" d="M 0 5.91608 
C 1.568963 5.91608 3.073876 5.292724 4.1833 4.1833 
C 5.292724 3.073876 5.91608 1.568963 5.91608 0 
C 5.91608 -1.568963 5.292724 -3.073876 4.1833 -4.1833 
C 3.073876 -5.292724 1.568963 -5.91608 0 -5.91608 
C -1.568963 -5.91608 -3.073876 -5.292724 -4.1833 -4.1833 
C -5.292724 -3.073876 -5.91608 -1.568963 -5.91608 0 
C -5.91608 1.568963 -5.292724 3.073876 -4.1833 4.1833 
C -3.073876 5.292724 -1.568963 5.91608 0 5.91608 
z
" style="stroke: #bc623d"/>
    </defs>
    <g clip-path="url(#pdc25ded86a)">
     <use xlink:href="#m467838e96a" x="114.055151" y="113.98607" style="fill: #bc623d; stroke: #bc623d"/>
    </g>
   </g>
   <g id="PathCollection_5">
    <defs>
     <path id="m54e3e86930" d="M 0 2.95804 
C 0.784481 2.95804 1.536938 2.646362 2.09165 2.09165 
C 2.646362 1.536938 2.95804 0.784481 2.95804 0 
C 2.95804 -0.784481 2.646362 -1.536938 2.09165 -2.09165 
C 1.536938 -2.646362 0.784481 -2.95804 0 -2.95804 
C -0.784481 -2.95804 -1.536938 -2.646362 -2.09165 -2.09165 
C -2.646362 -1.536938 -2.95804 -0.784481 -2.95804 0 
C -2.95804 0.784481 -2.646362 1.536938 -2.09165 2.09165 
C -1.536938 2.646362 -0.784481 2.95804 0 2.95804 
z
" style="stroke: #6b5d91; stroke-opacity: 0.35"/>
    </defs>
    <g clip-path="url(#pdc25ded86a)">
     <use xlink:href="#m54e3e86930" x="177.803399" y="113.98607" style="fill: #6b5d91; fill-opacity: 0.35; stroke: #6b5d91; stroke-opacity: 0.35"/>
     <use xlink:href="#m54e3e86930" x="181.223436" y="105.979065" style="fill: #6b5d91; fill-opacity: 0.35; stroke: #6b5d91; stroke-opacity: 0.35"/>
     <use xlink:href="#m54e3e86930" x="176.694198" y="121.993075" style="fill: #6b5d91; fill-opacity: 0.35; stroke: #6b5d91; stroke-opacity: 0.35"/>
     <use xlink:href="#m54e3e86930" x="180.545591" y="65.944042" style="fill: #6b5d91; fill-opacity: 0.35; stroke: #6b5d91; stroke-opacity: 0.35"/>
    </g>
   </g>
   <g id="PathCollection_6">
    <defs>
     <path id="m6d5beeea72" d="M 0 5.91608 
C 1.568963 5.91608 3.073876 5.292724 4.1833 4.1833 
C 5.292724 3.073876 5.91608 1.568963 5.91608 0 
C 5.91608 -1.568963 5.292724 -3.073876 4.1833 -4.1833 
C 3.073876 -5.292724 1.568963 -5.91608 0 -5.91608 
C -1.568963 -5.91608 -3.073876 -5.292724 -4.1833 -4.1833 
C -5.292724 -3.073876 -5.91608 -1.568963 -5.91608 0 
C -5.91608 1.568963 -5.292724 3.073876 -4.1833 4.1833 
C -3.073876 5.292724 -1.568963 5.91608 0 5.91608 
z
" style="stroke: #6b5d91"/>
    </defs>
    <g clip-path="url(#pdc25ded86a)">
     <use xlink:href="#m6d5beeea72" x="179.066656" y="101.975563" style="fill: #6b5d91; stroke: #6b5d91"/>
    </g>
   </g>
   <g id="PathCollection_7">
    <defs>
     <path id="m79e3519780" d="M 0 2.95804 
C 0.784481 2.95804 1.536938 2.646362 2.09165 2.09165 
C 2.646362 1.536938 2.95804 0.784481 2.95804 0 
C 2.95804 -0.784481 2.646362 -1.536938 2.09165 -2.09165 
C 1.536938 -2.646362 0.784481 -2.95804 0 -2.95804 
C -0.784481 -2.95804 -1.536938 -2.646362 -2.09165 -2.09165 
C -2.646362 -1.536938 -2.95804 -0.784481 -2.95804 0 
C -2.95804 0.784481 -2.646362 1.536938 -2.09165 2.09165 
C -1.536938 2.646362 -0.784481 2.95804 0 2.95804 
z
" style="stroke: #6a7962; stroke-opacity: 0.35"/>
    </defs>
    <g clip-path="url(#pdc25ded86a)">
     <use xlink:href="#m79e3519780" x="66.914107" y="162.028098" style="fill: #6a7962; fill-opacity: 0.35; stroke: #6a7962; stroke-opacity: 0.35"/>
     <use xlink:href="#m79e3519780" x="76.835294" y="121.993075" style="fill: #6a7962; fill-opacity: 0.35; stroke: #6a7962; stroke-opacity: 0.35"/>
     <use xlink:href="#m79e3519780" x="66.72924" y="170.035102" style="fill: #6a7962; fill-opacity: 0.35; stroke: #6a7962; stroke-opacity: 0.35"/>
     <use xlink:href="#m79e3519780" x="64.202727" y="105.979065" style="fill: #6a7962; fill-opacity: 0.35; stroke: #6a7962; stroke-opacity: 0.35"/>
    </g>
   </g>
   <g id="PathCollection_8">
    <defs>
     <path id="m8723235be7" d="M 0 5.91608 
C 1.568963 5.91608 3.073876 5.292724 4.1833 4.1833 
C 5.292724 3.073876 5.91608 1.568963 5.91608 0 
C 5.91608 -1.568963 5.292724 -3.073876 4.1833 -4.1833 
C 3.073876 -5.292724 1.568963 -5.91608 0 -5.91608 
C -1.568963 -5.91608 -3.073876 -5.292724 -4.1833 -4.1833 
C -5.292724 -3.073876 -5.91608 -1.568963 -5.91608 0 
C -5.91608 1.568963 -5.292724 3.073876 -4.1833 4.1833 
C -3.073876 5.292724 -1.568963 5.91608 0 5.91608 
z
" style="stroke: #6a7962"/>
    </defs>
    <g clip-path="url(#pdc25ded86a)">
     <use xlink:href="#m8723235be7" x="68.670342" y="140.008835" style="fill: #6a7962; stroke: #6a7962"/>
    </g>
   </g>
   <g id="matplotlib.axis_1">
    <g id="xtick_1">
     <g id="line2d_1">
      <path d="M 78.34504 356.998661 
L 78.34504 36.318125 
" clip-path="url(#pdc25ded86a)" style="fill: none; stroke: #b0b0b0; stroke-opacity: 0.15; stroke-width: 0.8; stroke-linecap: square"/>
     </g>
     <g id="line2d_2">
      <defs>
       <path id="m351300297f" d="M 0 0 
L 0 3.5 
" style="stroke: #000000; stroke-width: 0.8"/>
      </defs>
      <g>
       <use xlink:href="#m351300297f" x="78.34504" y="356.998661" style="stroke: #000000; stroke-width: 0.8"/>
      </g>
     </g>
     <g id="text_1">
      <text style="font-size: 11px; font-family: 'DejaVu Sans'; text-anchor: middle" x="78.34504" y="372.356082" transform="rotate(-0 78.34504 372.356082)">500</text>
     </g>
    </g>
    <g id="xtick_2">
     <g id="line2d_3">
      <path d="M 124.56175 356.998661 
L 124.56175 36.318125 
" clip-path="url(#pdc25ded86a)" style="fill: none; stroke: #b0b0b0; stroke-opacity: 0.15; stroke-width: 0.8; stroke-linecap: square"/>
     </g>
     <g id="line2d_4">
      <g>
       <use xlink:href="#m351300297f" x="124.56175" y="356.998661" style="stroke: #000000; stroke-width: 0.8"/>
      </g>
     </g>
     <g id="text_2">
      <text style="font-size: 11px; font-family: 'DejaVu Sans'; text-anchor: middle" x="124.56175" y="372.356082" transform="rotate(-0 124.56175 372.356082)">1000</text>
     </g>
    </g>
    <g id="xtick_3">
     <g id="line2d_5">
      <path d="M 170.778459 356.998661 
L 170.778459 36.318125 
" clip-path="url(#pdc25ded86a)" style="fill: none; stroke: #b0b0b0; stroke-opacity: 0.15; stroke-width: 0.8; stroke-linecap: square"/>
     </g>
     <g id="line2d_6">
      <g>
       <use xlink:href="#m351300297f" x="170.778459" y="356.998661" style="stroke: #000000; stroke-width: 0.8"/>
      </g>
     </g>
     <g id="text_3">
      <text style="font-size: 11px; font-family: 'DejaVu Sans'; text-anchor: middle" x="170.778459" y="372.356082" transform="rotate(-0 170.778459 372.356082)">1500</text>
     </g>
    </g>
    <g id="xtick_4">
     <g id="line2d_7">
      <path d="M 216.995169 356.998661 
L 216.995169 36.318125 
" clip-path="url(#pdc25ded86a)" style="fill: none; stroke: #b0b0b0; stroke-opacity: 0.15; stroke-width: 0.8; stroke-linecap: square"/>
     </g>
     <g id="line2d_8">
      <g>
       <use xlink:href="#m351300297f" x="216.995169" y="356.998661" style="stroke: #000000; stroke-width: 0.8"/>
      </g>
     </g>
     <g id="text_4">
      <text style="font-size: 11px; font-family: 'DejaVu Sans'; text-anchor: middle" x="216.995169" y="372.356082" transform="rotate(-0 216.995169 372.356082)">2000</text>
     </g>
    </g>
    <g id="xtick_5">
     <g id="line2d_9">
      <path d="M 263.211878 356.998661 
L 263.211878 36.318125 
" clip-path="url(#pdc25ded86a)" style="fill: none; stroke: #b0b0b0; stroke-opacity: 0.15; stroke-width: 0.8; stroke-linecap: square"/>
     </g>
     <g id="line2d_10">
      <g>
       <use xlink:href="#m351300297f" x="263.211878" y="356.998661" style="stroke: #000000; stroke-width: 0.8"/>
      </g>
     </g>
     <g id="text_5">
      <text style="font-size: 11px; font-family: 'DejaVu Sans'; text-anchor: middle" x="263.211878" y="372.356082" transform="rotate(-0 263.211878 372.356082)">2500</text>
     </g>
    </g>
    <g id="xtick_6">
     <g id="line2d_11">
      <path d="M 309.428588 356.998661 
L 309.428588 36.318125 
" clip-path="url(#pdc25ded86a)" style="fill: none; stroke: #b0b0b0; stroke-opacity: 0.15; stroke-width: 0.8; stroke-linecap: square"/>
     </g>
     <g id="line2d_12">
      <g>
       <use xlink:href="#m351300297f" x="309.428588" y="356.998661" style="stroke: #000000; stroke-width: 0.8"/>
      </g>
     </g>
     <g id="text_6">
      <text style="font-size: 11px; font-family: 'DejaVu Sans'; text-anchor: middle" x="309.428588" y="372.356082" transform="rotate(-0 309.428588 372.356082)">3000</text>
     </g>
    </g>
    <g id="xtick_7">
     <g id="line2d_13">
      <path d="M 355.645298 356.998661 
L 355.645298 36.318125 
" clip-path="url(#pdc25ded86a)" style="fill: none; stroke: #b0b0b0; stroke-opacity: 0.15; stroke-width: 0.8; stroke-linecap: square"/>
     </g>
     <g id="line2d_14">
      <g>
       <use xlink:href="#m351300297f" x="355.645298" y="356.998661" style="stroke: #000000; stroke-width: 0.8"/>
      </g>
     </g>
     <g id="text_7">
      <text style="font-size: 11px; font-family: 'DejaVu Sans'; text-anchor: middle" x="355.645298" y="372.356082" transform="rotate(-0 355.645298 372.356082)">3500</text>
     </g>
    </g>
    <g id="xtick_8">
     <g id="line2d_15">
      <path d="M 401.862007 356.998661 
L 401.862007 36.318125 
" clip-path="url(#pdc25ded86a)" style="fill: none; stroke: #b0b0b0; stroke-opacity: 0.15; stroke-width: 0.8; stroke-linecap: square"/>
     </g>
     <g id="line2d_16">
      <g>
       <use xlink:href="#m351300297f" x="401.862007" y="356.998661" style="stroke: #000000; stroke-width: 0.8"/>
      </g>
     </g>
     <g id="text_8">
      <text style="font-size: 11px; font-family: 'DejaVu Sans'; text-anchor: middle" x="401.862007" y="372.356082" transform="rotate(-0 401.862007 372.356082)">4000</text>
     </g>
    </g>
    <g id="text_9">
     <text style="font-size: 11px; font-family: 'DejaVu Sans'; text-anchor: middle" x="239.287028" y="387.356942" transform="rotate(-0 239.287028 387.356942)">Generation input tokens per answer (provider reported)</text>
    </g>
   </g>
   <g id="matplotlib.axis_2">
    <g id="ytick_1">
     <g id="line2d_17">
      <path d="M 46.694297 346.189204 
L 431.87976 346.189204 
" clip-path="url(#pdc25ded86a)" style="fill: none; stroke: #b0b0b0; stroke-opacity: 0.15; stroke-width: 0.8; stroke-linecap: square"/>
     </g>
     <g id="line2d_18">
      <defs>
       <path id="me60302a8bf" d="M 0 0 
L -3.5 0 
" style="stroke: #000000; stroke-width: 0.8"/>
      </defs>
      <g>
       <use xlink:href="#me60302a8bf" x="46.694297" y="346.189204" style="stroke: #000000; stroke-width: 0.8"/>
      </g>
     </g>
     <g id="text_10">
      <text style="font-size: 11px; font-family: 'DejaVu Sans'; text-anchor: end" x="39.694297" y="350.367915" transform="rotate(-0 39.694297 350.367915)">0.0</text>
     </g>
    </g>
    <g id="ytick_2">
     <g id="line2d_19">
      <path d="M 46.694297 310.157684 
L 431.87976 310.157684 
" clip-path="url(#pdc25ded86a)" style="fill: none; stroke: #b0b0b0; stroke-opacity: 0.15; stroke-width: 0.8; stroke-linecap: square"/>
     </g>
     <g id="line2d_20">
      <g>
       <use xlink:href="#me60302a8bf" x="46.694297" y="310.157684" style="stroke: #000000; stroke-width: 0.8"/>
      </g>
     </g>
     <g id="text_11">
      <text style="font-size: 11px; font-family: 'DejaVu Sans'; text-anchor: end" x="39.694297" y="314.336394" transform="rotate(-0 39.694297 314.336394)">0.5</text>
     </g>
    </g>
    <g id="ytick_3">
     <g id="line2d_21">
      <path d="M 46.694297 274.126163 
L 431.87976 274.126163 
" clip-path="url(#pdc25ded86a)" style="fill: none; stroke: #b0b0b0; stroke-opacity: 0.15; stroke-width: 0.8; stroke-linecap: square"/>
     </g>
     <g id="line2d_22">
      <g>
       <use xlink:href="#me60302a8bf" x="46.694297" y="274.126163" style="stroke: #000000; stroke-width: 0.8"/>
      </g>
     </g>
     <g id="text_12">
      <text style="font-size: 11px; font-family: 'DejaVu Sans'; text-anchor: end" x="39.694297" y="278.304874" transform="rotate(-0 39.694297 278.304874)">1.0</text>
     </g>
    </g>
    <g id="ytick_4">
     <g id="line2d_23">
      <path d="M 46.694297 238.094642 
L 431.87976 238.094642 
" clip-path="url(#pdc25ded86a)" style="fill: none; stroke: #b0b0b0; stroke-opacity: 0.15; stroke-width: 0.8; stroke-linecap: square"/>
     </g>
     <g id="line2d_24">
      <g>
       <use xlink:href="#me60302a8bf" x="46.694297" y="238.094642" style="stroke: #000000; stroke-width: 0.8"/>
      </g>
     </g>
     <g id="text_13">
      <text style="font-size: 11px; font-family: 'DejaVu Sans'; text-anchor: end" x="39.694297" y="242.273353" transform="rotate(-0 39.694297 242.273353)">1.5</text>
     </g>
    </g>
    <g id="ytick_5">
     <g id="line2d_25">
      <path d="M 46.694297 202.063121 
L 431.87976 202.063121 
" clip-path="url(#pdc25ded86a)" style="fill: none; stroke: #b0b0b0; stroke-opacity: 0.15; stroke-width: 0.8; stroke-linecap: square"/>
     </g>
     <g id="line2d_26">
      <g>
       <use xlink:href="#me60302a8bf" x="46.694297" y="202.063121" style="stroke: #000000; stroke-width: 0.8"/>
      </g>
     </g>
     <g id="text_14">
      <text style="font-size: 11px; font-family: 'DejaVu Sans'; text-anchor: end" x="39.694297" y="206.241832" transform="rotate(-0 39.694297 206.241832)">2.0</text>
     </g>
    </g>
    <g id="ytick_6">
     <g id="line2d_27">
      <path d="M 46.694297 166.0316 
L 431.87976 166.0316 
" clip-path="url(#pdc25ded86a)" style="fill: none; stroke: #b0b0b0; stroke-opacity: 0.15; stroke-width: 0.8; stroke-linecap: square"/>
     </g>
     <g id="line2d_28">
      <g>
       <use xlink:href="#me60302a8bf" x="46.694297" y="166.0316" style="stroke: #000000; stroke-width: 0.8"/>
      </g>
     </g>
     <g id="text_15">
      <text style="font-size: 11px; font-family: 'DejaVu Sans'; text-anchor: end" x="39.694297" y="170.210311" transform="rotate(-0 39.694297 170.210311)">2.5</text>
     </g>
    </g>
    <g id="ytick_7">
     <g id="line2d_29">
      <path d="M 46.694297 130.000079 
L 431.87976 130.000079 
" clip-path="url(#pdc25ded86a)" style="fill: none; stroke: #b0b0b0; stroke-opacity: 0.15; stroke-width: 0.8; stroke-linecap: square"/>
     </g>
     <g id="line2d_30">
      <g>
       <use xlink:href="#me60302a8bf" x="46.694297" y="130.000079" style="stroke: #000000; stroke-width: 0.8"/>
      </g>
     </g>
     <g id="text_16">
      <text style="font-size: 11px; font-family: 'DejaVu Sans'; text-anchor: end" x="39.694297" y="134.17879" transform="rotate(-0 39.694297 134.17879)">3.0</text>
     </g>
    </g>
    <g id="ytick_8">
     <g id="line2d_31">
      <path d="M 46.694297 93.968558 
L 431.87976 93.968558 
" clip-path="url(#pdc25ded86a)" style="fill: none; stroke: #b0b0b0; stroke-opacity: 0.15; stroke-width: 0.8; stroke-linecap: square"/>
     </g>
     <g id="line2d_32">
      <g>
       <use xlink:href="#me60302a8bf" x="46.694297" y="93.968558" style="stroke: #000000; stroke-width: 0.8"/>
      </g>
     </g>
     <g id="text_17">
      <text style="font-size: 11px; font-family: 'DejaVu Sans'; text-anchor: end" x="39.694297" y="98.147269" transform="rotate(-0 39.694297 98.147269)">3.5</text>
     </g>
    </g>
    <g id="ytick_9">
     <g id="line2d_33">
      <path d="M 46.694297 57.937038 
L 431.87976 57.937038 
" clip-path="url(#pdc25ded86a)" style="fill: none; stroke: #b0b0b0; stroke-opacity: 0.15; stroke-width: 0.8; stroke-linecap: square"/>
     </g>
     <g id="line2d_34">
      <g>
       <use xlink:href="#me60302a8bf" x="46.694297" y="57.937038" style="stroke: #000000; stroke-width: 0.8"/>
      </g>
     </g>
     <g id="text_18">
      <text style="font-size: 11px; font-family: 'DejaVu Sans'; text-anchor: end" x="39.694297" y="62.115748" transform="rotate(-0 39.694297 62.115748)">4.0</text>
     </g>
    </g>
    <g id="text_19">
     <text style="font-size: 11px; font-family: 'DejaVu Sans'; text-anchor: middle" x="15.558281" y="196.658393" transform="rotate(-90 15.558281 196.658393)">Model-judged coverage (0–4)</text>
    </g>
   </g>
   <g id="patch_3">
    <path d="M 46.694297 356.998661 
L 46.694297 36.318125 
" style="fill: none; stroke: #000000; stroke-width: 0.8; stroke-linejoin: miter; stroke-linecap: square"/>
   </g>
   <g id="patch_4">
    <path d="M 46.694297 356.998661 
L 431.87976 356.998661 
" style="fill: none; stroke: #000000; stroke-width: 0.8; stroke-linejoin: miter; stroke-linecap: square"/>
   </g>
   <g id="text_20">
    <text style="font-size: 12px; font-family: 'DejaVu Sans'; text-anchor: start" x="46.694297" y="16.318125" transform="rotate(-0 46.694297 16.318125)">A judge can reward a plausible answer</text>
   </g>
   <g id="legend_1">
    <g id="PathCollection_9">
     <g>
      <use xlink:href="#mae0cee2ca1" x="67.594297" y="292.066004" style="fill: #293c50; stroke: #293c50"/>
     </g>
    </g>
    <g id="text_21">
     <text style="font-size: 11px; font-family: 'DejaVu Sans'; text-anchor: start" x="87.394297" y="294.953504" transform="rotate(-0 87.394297 294.953504)">Full archive</text>
    </g>
    <g id="PathCollection_10">
     <g>
      <use xlink:href="#m467838e96a" x="67.594297" y="308.566864" style="fill: #bc623d; stroke: #bc623d"/>
     </g>
    </g>
    <g id="text_22">
     <text style="font-size: 11px; font-family: 'DejaVu Sans'; text-anchor: start" x="87.394297" y="311.454364" transform="rotate(-0 87.394297 311.454364)">Recent 3</text>
    </g>
    <g id="PathCollection_11">
     <g>
      <use xlink:href="#m6d5beeea72" x="67.594297" y="325.067723" style="fill: #6b5d91; stroke: #6b5d91"/>
     </g>
    </g>
    <g id="text_23">
     <text style="font-size: 11px; font-family: 'DejaVu Sans'; text-anchor: start" x="87.394297" y="327.955223" transform="rotate(-0 87.394297 327.955223)">Selective 6</text>
    </g>
    <g id="PathCollection_12">
     <g>
      <use xlink:href="#m8723235be7" x="67.594297" y="341.568582" style="fill: #6a7962; stroke: #6a7962"/>
     </g>
    </g>
    <g id="text_24">
     <text style="font-size: 11px; font-family: 'DejaVu Sans'; text-anchor: start" x="87.394297" y="344.456082" transform="rotate(-0 87.394297 344.456082)">Rolling summary</text>
    </g>
   </g>
  </g>
  <g id="axes_2">
   <g id="patch_5">
    <path d="M 480.014057 356.998661 
L 865.19952 356.998661 
L 865.19952 36.318125 
L 480.014057 36.318125 
z
" style="fill: #faf9f6"/>
   </g>
   <g id="PathCollection_13">
    <g clip-path="url(#pc07140d24d)">
     <use xlink:href="#mb14f0b5e4e" x="847.69109" y="212.854379" style="fill: #293c50; fill-opacity: 0.35; stroke: #293c50; stroke-opacity: 0.35"/>
     <use xlink:href="#mb14f0b5e4e" x="743.364571" y="245.246353" style="fill: #293c50; fill-opacity: 0.35; stroke: #293c50; stroke-opacity: 0.35"/>
     <use xlink:href="#mb14f0b5e4e" x="802.491148" y="180.462406" style="fill: #293c50; fill-opacity: 0.35; stroke: #293c50; stroke-opacity: 0.35"/>
     <use xlink:href="#mb14f0b5e4e" x="746.260818" y="99.482473" style="fill: #293c50; fill-opacity: 0.35; stroke: #293c50; stroke-opacity: 0.35"/>
    </g>
   </g>
   <g id="PathCollection_14">
    <g clip-path="url(#pc07140d24d)">
     <use xlink:href="#mae0cee2ca1" x="784.951907" y="184.511403" style="fill: #293c50; stroke: #293c50"/>
    </g>
   </g>
   <g id="PathCollection_15">
    <g clip-path="url(#pc07140d24d)">
     <use xlink:href="#m6b6661c0e2" x="547.652211" y="293.834313" style="fill: #bc623d; fill-opacity: 0.35; stroke: #bc623d; stroke-opacity: 0.35"/>
     <use xlink:href="#m6b6661c0e2" x="549.254391" y="245.246353" style="fill: #bc623d; fill-opacity: 0.35; stroke: #bc623d; stroke-opacity: 0.35"/>
     <use xlink:href="#m6b6661c0e2" x="545.803543" y="342.422273" style="fill: #bc623d; fill-opacity: 0.35; stroke: #bc623d; stroke-opacity: 0.35"/>
     <use xlink:href="#m6b6661c0e2" x="546.789499" y="196.658393" style="fill: #bc623d; fill-opacity: 0.35; stroke: #bc623d; stroke-opacity: 0.35"/>
    </g>
   </g>
   <g id="PathCollection_16">
    <g clip-path="url(#pc07140d24d)">
     <use xlink:href="#m467838e96a" x="547.374911" y="269.540333" style="fill: #bc623d; stroke: #bc623d"/>
    </g>
   </g>
   <g id="PathCollection_17">
    <g clip-path="url(#pc07140d24d)">
     <use xlink:href="#m54e3e86930" x="611.123159" y="131.874446" style="fill: #6b5d91; fill-opacity: 0.35; stroke: #6b5d91; stroke-opacity: 0.35"/>
     <use xlink:href="#m54e3e86930" x="614.543196" y="196.658393" style="fill: #6b5d91; fill-opacity: 0.35; stroke: #6b5d91; stroke-opacity: 0.35"/>
     <use xlink:href="#m54e3e86930" x="610.013958" y="196.658393" style="fill: #6b5d91; fill-opacity: 0.35; stroke: #6b5d91; stroke-opacity: 0.35"/>
     <use xlink:href="#m54e3e86930" x="613.865351" y="83.286486" style="fill: #6b5d91; fill-opacity: 0.35; stroke: #6b5d91; stroke-opacity: 0.35"/>
    </g>
   </g>
   <g id="PathCollection_18">
    <g clip-path="url(#pc07140d24d)">
     <use xlink:href="#m6d5beeea72" x="612.386416" y="152.11943" style="fill: #6b5d91; stroke: #6b5d91"/>
    </g>
   </g>
   <g id="PathCollection_19">
    <g clip-path="url(#pc07140d24d)">
     <use xlink:href="#m79e3519780" x="500.233867" y="342.422273" style="fill: #6a7962; fill-opacity: 0.35; stroke: #6a7962; stroke-opacity: 0.35"/>
     <use xlink:href="#m79e3519780" x="510.155054" y="277.638326" style="fill: #6a7962; fill-opacity: 0.35; stroke: #6a7962; stroke-opacity: 0.35"/>
     <use xlink:href="#m79e3519780" x="500.049" y="342.422273" style="fill: #6a7962; fill-opacity: 0.35; stroke: #6a7962; stroke-opacity: 0.35"/>
     <use xlink:href="#m79e3519780" x="497.522487" y="342.422273" style="fill: #6a7962; fill-opacity: 0.35; stroke: #6a7962; stroke-opacity: 0.35"/>
    </g>
   </g>
   <g id="PathCollection_20">
    <g clip-path="url(#pc07140d24d)">
     <use xlink:href="#m8723235be7" x="501.990102" y="326.226286" style="fill: #6a7962; stroke: #6a7962"/>
    </g>
   </g>
   <g id="matplotlib.axis_3">
    <g id="xtick_9">
     <g id="line2d_35">
      <path d="M 511.6648 356.998661 
L 511.6648 36.318125 
" clip-path="url(#pc07140d24d)" style="fill: none; stroke: #b0b0b0; stroke-opacity: 0.15; stroke-width: 0.8; stroke-linecap: square"/>
     </g>
     <g id="line2d_36">
      <g>
       <use xlink:href="#m351300297f" x="511.6648" y="356.998661" style="stroke: #000000; stroke-width: 0.8"/>
      </g>
     </g>
     <g id="text_25">
      <text style="font-size: 11px; font-family: 'DejaVu Sans'; text-anchor: middle" x="511.6648" y="372.356082" transform="rotate(-0 511.6648 372.356082)">500</text>
     </g>
    </g>
    <g id="xtick_10">
     <g id="line2d_37">
      <path d="M 557.88151 356.998661 
L 557.88151 36.318125 
" clip-path="url(#pc07140d24d)" style="fill: none; stroke: #b0b0b0; stroke-opacity: 0.15; stroke-width: 0.8; stroke-linecap: square"/>
     </g>
     <g id="line2d_38">
      <g>
       <use xlink:href="#m351300297f" x="557.88151" y="356.998661" style="stroke: #000000; stroke-width: 0.8"/>
      </g>
     </g>
     <g id="text_26">
      <text style="font-size: 11px; font-family: 'DejaVu Sans'; text-anchor: middle" x="557.88151" y="372.356082" transform="rotate(-0 557.88151 372.356082)">1000</text>
     </g>
    </g>
    <g id="xtick_11">
     <g id="line2d_39">
      <path d="M 604.098219 356.998661 
L 604.098219 36.318125 
" clip-path="url(#pc07140d24d)" style="fill: none; stroke: #b0b0b0; stroke-opacity: 0.15; stroke-width: 0.8; stroke-linecap: square"/>
     </g>
     <g id="line2d_40">
      <g>
       <use xlink:href="#m351300297f" x="604.098219" y="356.998661" style="stroke: #000000; stroke-width: 0.8"/>
      </g>
     </g>
     <g id="text_27">
      <text style="font-size: 11px; font-family: 'DejaVu Sans'; text-anchor: middle" x="604.098219" y="372.356082" transform="rotate(-0 604.098219 372.356082)">1500</text>
     </g>
    </g>
    <g id="xtick_12">
     <g id="line2d_41">
      <path d="M 650.314929 356.998661 
L 650.314929 36.318125 
" clip-path="url(#pc07140d24d)" style="fill: none; stroke: #b0b0b0; stroke-opacity: 0.15; stroke-width: 0.8; stroke-linecap: square"/>
     </g>
     <g id="line2d_42">
      <g>
       <use xlink:href="#m351300297f" x="650.314929" y="356.998661" style="stroke: #000000; stroke-width: 0.8"/>
      </g>
     </g>
     <g id="text_28">
      <text style="font-size: 11px; font-family: 'DejaVu Sans'; text-anchor: middle" x="650.314929" y="372.356082" transform="rotate(-0 650.314929 372.356082)">2000</text>
     </g>
    </g>
    <g id="xtick_13">
     <g id="line2d_43">
      <path d="M 696.531638 356.998661 
L 696.531638 36.318125 
" clip-path="url(#pc07140d24d)" style="fill: none; stroke: #b0b0b0; stroke-opacity: 0.15; stroke-width: 0.8; stroke-linecap: square"/>
     </g>
     <g id="line2d_44">
      <g>
       <use xlink:href="#m351300297f" x="696.531638" y="356.998661" style="stroke: #000000; stroke-width: 0.8"/>
      </g>
     </g>
     <g id="text_29">
      <text style="font-size: 11px; font-family: 'DejaVu Sans'; text-anchor: middle" x="696.531638" y="372.356082" transform="rotate(-0 696.531638 372.356082)">2500</text>
     </g>
    </g>
    <g id="xtick_14">
     <g id="line2d_45">
      <path d="M 742.748348 356.998661 
L 742.748348 36.318125 
" clip-path="url(#pc07140d24d)" style="fill: none; stroke: #b0b0b0; stroke-opacity: 0.15; stroke-width: 0.8; stroke-linecap: square"/>
     </g>
     <g id="line2d_46">
      <g>
       <use xlink:href="#m351300297f" x="742.748348" y="356.998661" style="stroke: #000000; stroke-width: 0.8"/>
      </g>
     </g>
     <g id="text_30">
      <text style="font-size: 11px; font-family: 'DejaVu Sans'; text-anchor: middle" x="742.748348" y="372.356082" transform="rotate(-0 742.748348 372.356082)">3000</text>
     </g>
    </g>
    <g id="xtick_15">
     <g id="line2d_47">
      <path d="M 788.965058 356.998661 
L 788.965058 36.318125 
" clip-path="url(#pc07140d24d)" style="fill: none; stroke: #b0b0b0; stroke-opacity: 0.15; stroke-width: 0.8; stroke-linecap: square"/>
     </g>
     <g id="line2d_48">
      <g>
       <use xlink:href="#m351300297f" x="788.965058" y="356.998661" style="stroke: #000000; stroke-width: 0.8"/>
      </g>
     </g>
     <g id="text_31">
      <text style="font-size: 11px; font-family: 'DejaVu Sans'; text-anchor: middle" x="788.965058" y="372.356082" transform="rotate(-0 788.965058 372.356082)">3500</text>
     </g>
    </g>
    <g id="xtick_16">
     <g id="line2d_49">
      <path d="M 835.181767 356.998661 
L 835.181767 36.318125 
" clip-path="url(#pc07140d24d)" style="fill: none; stroke: #b0b0b0; stroke-opacity: 0.15; stroke-width: 0.8; stroke-linecap: square"/>
     </g>
     <g id="line2d_50">
      <g>
       <use xlink:href="#m351300297f" x="835.181767" y="356.998661" style="stroke: #000000; stroke-width: 0.8"/>
      </g>
     </g>
     <g id="text_32">
      <text style="font-size: 11px; font-family: 'DejaVu Sans'; text-anchor: middle" x="835.181767" y="372.356082" transform="rotate(-0 835.181767 372.356082)">4000</text>
     </g>
    </g>
    <g id="text_33">
     <text style="font-size: 11px; font-family: 'DejaVu Sans'; text-anchor: middle" x="672.606788" y="387.356942" transform="rotate(-0 672.606788 387.356942)">Generation input tokens per answer</text>
    </g>
   </g>
   <g id="matplotlib.axis_4">
    <g id="ytick_10">
     <g id="line2d_51">
      <path d="M 480.014057 342.422273 
L 865.19952 342.422273 
" clip-path="url(#pc07140d24d)" style="fill: none; stroke: #b0b0b0; stroke-opacity: 0.15; stroke-width: 0.8; stroke-linecap: square"/>
     </g>
     <g id="line2d_52">
      <g>
       <use xlink:href="#me60302a8bf" x="480.014057" y="342.422273" style="stroke: #000000; stroke-width: 0.8"/>
      </g>
     </g>
     <g id="text_34">
      <text style="font-size: 11px; font-family: 'DejaVu Sans'; text-anchor: end" x="473.014057" y="346.600984" transform="rotate(-0 473.014057 346.600984)">0.0</text>
     </g>
    </g>
    <g id="ytick_11">
     <g id="line2d_53">
      <path d="M 480.014057 284.116721 
L 865.19952 284.116721 
" clip-path="url(#pc07140d24d)" style="fill: none; stroke: #b0b0b0; stroke-opacity: 0.15; stroke-width: 0.8; stroke-linecap: square"/>
     </g>
     <g id="line2d_54">
      <g>
       <use xlink:href="#me60302a8bf" x="480.014057" y="284.116721" style="stroke: #000000; stroke-width: 0.8"/>
      </g>
     </g>
     <g id="text_35">
      <text style="font-size: 11px; font-family: 'DejaVu Sans'; text-anchor: end" x="473.014057" y="288.295432" transform="rotate(-0 473.014057 288.295432)">0.2</text>
     </g>
    </g>
    <g id="ytick_12">
     <g id="line2d_55">
      <path d="M 480.014057 225.811169 
L 865.19952 225.811169 
" clip-path="url(#pc07140d24d)" style="fill: none; stroke: #b0b0b0; stroke-opacity: 0.15; stroke-width: 0.8; stroke-linecap: square"/>
     </g>
     <g id="line2d_56">
      <g>
       <use xlink:href="#me60302a8bf" x="480.014057" y="225.811169" style="stroke: #000000; stroke-width: 0.8"/>
      </g>
     </g>
     <g id="text_36">
      <text style="font-size: 11px; font-family: 'DejaVu Sans'; text-anchor: end" x="473.014057" y="229.98988" transform="rotate(-0 473.014057 229.98988)">0.4</text>
     </g>
    </g>
    <g id="ytick_13">
     <g id="line2d_57">
      <path d="M 480.014057 167.505617 
L 865.19952 167.505617 
" clip-path="url(#pc07140d24d)" style="fill: none; stroke: #b0b0b0; stroke-opacity: 0.15; stroke-width: 0.8; stroke-linecap: square"/>
     </g>
     <g id="line2d_58">
      <g>
       <use xlink:href="#me60302a8bf" x="480.014057" y="167.505617" style="stroke: #000000; stroke-width: 0.8"/>
      </g>
     </g>
     <g id="text_37">
      <text style="font-size: 11px; font-family: 'DejaVu Sans'; text-anchor: end" x="473.014057" y="171.684328" transform="rotate(-0 473.014057 171.684328)">0.6</text>
     </g>
    </g>
    <g id="ytick_14">
     <g id="line2d_59">
      <path d="M 480.014057 109.200065 
L 865.19952 109.200065 
" clip-path="url(#pc07140d24d)" style="fill: none; stroke: #b0b0b0; stroke-opacity: 0.15; stroke-width: 0.8; stroke-linecap: square"/>
     </g>
     <g id="line2d_60">
      <g>
       <use xlink:href="#me60302a8bf" x="480.014057" y="109.200065" style="stroke: #000000; stroke-width: 0.8"/>
      </g>
     </g>
     <g id="text_38">
      <text style="font-size: 11px; font-family: 'DejaVu Sans'; text-anchor: end" x="473.014057" y="113.378776" transform="rotate(-0 473.014057 113.378776)">0.8</text>
     </g>
    </g>
    <g id="ytick_15">
     <g id="line2d_61">
      <path d="M 480.014057 50.894513 
L 865.19952 50.894513 
" clip-path="url(#pc07140d24d)" style="fill: none; stroke: #b0b0b0; stroke-opacity: 0.15; stroke-width: 0.8; stroke-linecap: square"/>
     </g>
     <g id="line2d_62">
      <g>
       <use xlink:href="#me60302a8bf" x="480.014057" y="50.894513" style="stroke: #000000; stroke-width: 0.8"/>
      </g>
     </g>
     <g id="text_39">
      <text style="font-size: 11px; font-family: 'DejaVu Sans'; text-anchor: end" x="473.014057" y="55.073224" transform="rotate(-0 473.014057 55.073224)">1.0</text>
     </g>
    </g>
    <g id="text_40">
     <text style="font-size: 11px; font-family: 'DejaVu Sans'; text-anchor: middle" x="448.878041" y="196.658393" transform="rotate(-90 448.878041 196.658393)">Designated evidence IDs cited (fraction)</text>
    </g>
   </g>
   <g id="patch_6">
    <path d="M 480.014057 356.998661 
L 480.014057 36.318125 
" style="fill: none; stroke: #000000; stroke-width: 0.8; stroke-linejoin: miter; stroke-linecap: square"/>
   </g>
   <g id="patch_7">
    <path d="M 480.014057 356.998661 
L 865.19952 356.998661 
" style="fill: none; stroke: #000000; stroke-width: 0.8; stroke-linejoin: miter; stroke-linecap: square"/>
   </g>
   <g id="text_41">
    <text style="font-size: 12px; font-family: 'DejaVu Sans'; text-anchor: start" x="480.014057" y="16.318125" transform="rotate(-0 480.014057 16.318125)">Check the evidence separately</text>
   </g>
  </g>
  <g id="text_42">
   <text style="font-size: 9px; font-family: 'DejaVu Sans'" transform="translate(73.31976 405.525299)">Large dots: equal-album means. Small dots: individual albums. 12 questions × 3 repetitions per policy.</text>
   <text style="font-size: 9px; font-family: 'DejaVu Sans'" transform="translate(73.31976 416.32776)">Both diagnostics are limited: silver references are fallible, and alternative evidence pairs may be defensible.</text>
  </g>
 </g>
 <defs>
  <clipPath id="pdc25ded86a">
   <rect x="46.694297" y="36.318125" width="385.185463" height="320.680536"/>
  </clipPath>
  <clipPath id="pc07140d24d">
   <rect x="480.014057" y="36.318125" width="385.185463" height="320.680536"/>
  </clipPath>
 </defs>
</svg>
